<?xml version="1.0" encoding="UTF-8"?><svg id="uuid-2ad1a2ac-bbf5-48ed-9ada-48b9faef0588" xmlns="http://www.w3.org/2000/svg" viewBox="0 0 296.13 251.27"><g id="uuid-3bd5d23a-0dc5-4719-b55e-f2365395a0bf"><path d="M296.13,40.67s-64.94-2.93-70.35-2.93c-9.32,0-18.08,1.39-26.27,4.17-8.19,2.78-15.33,6.8-21.42,12.06-6.09,5.27-10.9,11.69-14.43,19.28-3.53,7.59-5.3,16.12-5.3,25.59s1.77,18.04,5.3,25.71c3.53,7.67,8.38,14.21,14.54,19.62,6.16,5.41,13.34,9.58,21.53,12.52,8.19,2.93,16.87,4.4,26.04,4.4s18-1.51,26.04-4.51c8.04-3.01,15.03-7.22,20.97-12.63,5.93-5.41,10.63-11.95,14.09-19.62,3.45-7.67,5.19-16.16,5.19-25.48,0-5.26-.68-10.63-2.03-16.12-1.35-5.49-3.68-10.79-6.99-15.9l12.4-3.16.68-23ZM253.4,112.71c-1.28,4.14-3.19,7.78-5.75,10.94-2.56,3.16-5.71,5.64-9.47,7.44-3.76,1.8-8.12,2.71-13.08,2.71s-9.36-.9-13.19-2.71c-3.83-1.81-7.07-4.29-9.69-7.44-2.63-3.16-4.62-6.8-5.98-10.94-1.35-4.13-2.03-8.53-2.03-13.19,0-3.16.45-6.65,1.35-10.49.9-3.83,2.55-7.4,4.96-10.71,2.4-3.31,5.6-6.05,9.58-8.23,3.98-2.18,8.98-3.27,14.99-3.27,10.07,0,17.62,3.05,22.66,9.13,5.03,6.09,7.55,13.95,7.55,23.56,0,4.66-.64,9.06-1.92,13.19Z"/><path d="M255.77,169.63c-5.63,24.76-27.77,43.31-54.2,43.31-28.19,0-47.94-21.69-53.64-40.86-1.76-5.9-2.05-11.13-1.99-14.77V16.51h-.13V0h-55.27L0,157.93h43.36L107.6,45.84v111.47c0,.11,0,.22,0,.33v.29h0c.34,51.52,42.34,93.34,93.94,93.34,47.63,0,87.07-35.64,93.13-81.64h-38.92Z"/></g></svg>