<?xml version="1.0" encoding="UTF-8"?><svg id="uuid-10cf10d3-5297-4b86-b70b-54e50878cb27" xmlns="http://www.w3.org/2000/svg" viewBox="0 0 848.3 251.27"><g id="uuid-5b17b311-b0f4-43c7-85ca-fc07bafd3c56"><path d="M296.13,40.67s-64.94-2.93-70.35-2.93c-9.32,0-18.08,1.39-26.27,4.17-8.19,2.78-15.33,6.8-21.42,12.06-6.09,5.27-10.9,11.69-14.43,19.28-3.53,7.59-5.3,16.12-5.3,25.59s1.77,18.04,5.3,25.71c3.53,7.67,8.38,14.21,14.54,19.62,6.16,5.41,13.34,9.58,21.53,12.52,8.19,2.93,16.87,4.4,26.04,4.4s18-1.51,26.04-4.51c8.04-3.01,15.03-7.22,20.97-12.63,5.93-5.41,10.63-11.95,14.09-19.62,3.45-7.67,5.19-16.16,5.19-25.48,0-5.26-.68-10.63-2.03-16.12-1.35-5.49-3.68-10.79-6.99-15.9l12.4-3.16.68-23ZM253.4,112.71c-1.28,4.14-3.19,7.78-5.75,10.94-2.56,3.16-5.71,5.64-9.47,7.44-3.76,1.8-8.12,2.71-13.08,2.71s-9.36-.9-13.19-2.71c-3.83-1.81-7.07-4.29-9.69-7.44-2.63-3.16-4.62-6.8-5.98-10.94-1.35-4.13-2.03-8.53-2.03-13.19,0-3.16.45-6.65,1.35-10.49.9-3.83,2.55-7.4,4.96-10.71,2.4-3.31,5.6-6.05,9.58-8.23,3.98-2.18,8.98-3.27,14.99-3.27,10.07,0,17.62,3.05,22.66,9.13,5.03,6.09,7.55,13.95,7.55,23.56,0,4.66-.64,9.06-1.92,13.19Z"/><path d="M438.98,40.66h26.96l4.27,10.56c4.64-3.74,10.3-6.93,16.96-9.55,6.66-2.62,14.34-3.93,23.03-3.93,9.74,0,17.75,1.57,24.04,4.72,6.29,3.15,11.23,7.49,14.83,13.03,3.59,5.54,6.1,11.95,7.53,19.21,1.42,7.27,2.14,15.09,2.14,23.48v59.98h-36.17c.4-43.15.38-59.72.18-63.5-.01-.23-.12-2.28-.26-5.14-.38-7.7-.3-7.43-.39-8.11-.98-7.25-6.74-11.99-7.17-12.33-3.79-3.04-7.74-3.76-9.98-4.17-4.83-.87-8.63-.13-10.6.28-2.65.54-6.28,1.29-10.04,4.09-.75.56-4.19,3.2-6.6,8.09-2.59,5.27-2.51,10.17-2.32,12.49v68.3h-36.4V40.66Z"/><path d="M688.12,143.56l-1.35.9c-5.69,4.8-12.62,8.76-20.78,11.91-8.17,3.15-17.56,4.72-28.2,4.72-9.29,0-18.09-1.39-26.4-4.16-8.31-2.77-15.58-6.77-21.79-12.02-6.22-5.24-11.16-11.61-14.83-19.1-3.67-7.49-5.51-16.03-5.51-25.61s1.76-18.46,5.28-26.17c3.52-7.71,8.39-14.27,14.6-19.66,6.21-5.39,13.48-9.51,21.79-12.36,8.31-2.84,17.26-4.27,26.85-4.27,10.63,0,20.03,1.57,28.2,4.72,8.16,3.15,15.09,7.12,20.78,11.91l1.35.9-20.89,22.91-2.92-3.14c-5.69-6.44-14.46-9.66-26.28-9.66-11.09,0-19.25,3.18-24.49,9.55-5.24,6.37-7.86,14.79-7.86,25.27,0,3.45.48,7.12,1.46,11.01.97,3.9,2.66,7.49,5.05,10.79,2.4,3.3,5.69,6.03,9.88,8.2,4.19,2.17,9.51,3.26,15.95,3.26,11.68,0,20.52-3.15,26.51-9.44l2.92-3.37,20.67,22.92Z"/><path d="M716.2,35.72c-2.7,0-5.28-.45-7.75-1.36-2.47-.9-4.68-2.16-6.63-3.76-1.95-1.6-3.48-3.48-4.6-5.64-1.12-2.16-1.69-4.56-1.69-7.21s.6-5.05,1.8-7.21c1.2-2.16,2.73-4.04,4.6-5.64,1.87-1.6,4.04-2.82,6.52-3.66,2.47-.84,5.05-1.25,7.75-1.25s5.28.42,7.75,1.25c2.47.83,4.64,2.06,6.52,3.66,1.87,1.6,3.4,3.48,4.6,5.64,1.2,2.16,1.8,4.56,1.8,7.21s-.56,5.05-1.69,7.21c-1.12,2.16-2.66,4.04-4.6,5.64-1.95,1.6-4.16,2.86-6.63,3.76-2.47.91-5.05,1.36-7.75,1.36ZM698.01,40.66h36.4v117.5h-36.4V40.66Z"/><path d="M764.73,120.42l3.14,3.37c3.59,3.9,7.82,7.12,12.69,9.66,4.87,2.55,10.97,3.82,18.31,3.82,4.34,0,7.64-1.2,9.88-3.6,2.25-2.39,3.37-5.09,3.37-8.09s-.86-5.65-2.58-7.98c-1.72-2.32-4.08-4.68-7.08-7.08-3.45-2.54-7-4.94-10.67-7.19-3.67-2.25-7.38-4.42-11.12-6.51-4.04-2.25-8.05-4.68-12.02-7.3-3.97-2.62-7.53-5.43-10.67-8.42-3.14-2.99-5.69-6.29-7.64-9.88-1.95-3.59-2.92-7.56-2.92-11.91,0-1.2.15-2.62.45-4.27.3-1.65.82-3.33,1.57-5.06.75-1.72,1.76-3.37,3.03-4.94,1.27-1.57,2.88-2.88,4.83-3.93l.9-.45h36.84l-5.17,3.37c-1.05.75-1.91,1.72-2.58,2.92-.68,1.2-1.01,2.32-1.01,3.37,0,1.95.67,3.86,2.02,5.73,1.35,1.87,2.99,3.63,4.94,5.28,1.94,1.65,4.01,3.14,6.18,4.49,2.17,1.35,4.01,2.47,5.51,3.37,1.8,1.2,3.67,2.36,5.61,3.48,1.94,1.12,3.97,2.36,6.07,3.71,3.89,2.55,7.75,5.28,11.57,8.2,3.82,2.92,7.22,6.26,10.22,10,2.99,3.75,5.39,7.9,7.19,12.47,1.8,4.57,2.7,9.7,2.7,15.39,0,4.2-.79,8.76-2.36,13.7-1.57,4.95-4.23,9.51-7.97,13.71-3.75,4.19-8.8,7.71-15.16,10.56-6.37,2.84-14.34,4.27-23.93,4.27-12.13,0-22.54-1.99-31.23-5.95-8.69-3.97-15.88-8.72-21.56-14.27l-.9-1.12,19.55-22.92Z"/><path d="M255.77,169.63c-5.63,24.76-27.77,43.31-54.2,43.31-28.19,0-47.94-21.69-53.64-40.86-1.76-5.9-2.05-11.13-1.99-14.77V16.51h-.13V0h-55.27L0,157.93h43.36L107.6,45.84v111.47c0,.11,0,.22,0,.33v.29h0c.34,51.52,42.34,93.34,93.94,93.34,47.63,0,87.07-35.64,93.13-81.64h-38.92Z"/><path d="M423.93,75.15c-2.69-7.71-6.59-14.34-11.68-19.88-5.09-5.54-11.38-9.89-18.87-13.03-7.49-3.15-16.1-4.72-25.84-4.72s-17.86,1.54-25.72,4.61c-7.86,3.07-14.68,7.38-20.44,12.92-5.77,5.54-10.26,12.13-13.48,19.77-3.22,7.64-4.83,16.03-4.83,25.16s1.72,17.9,5.17,25.39c3.44,7.49,8.12,13.86,14.04,19.1,5.91,5.24,12.92,9.29,21,12.13,8.09,2.84,16.77,4.27,26.06,4.27h3.37v-27.63h-3.37c-10.04,0-17.52-3.18-22.47-9.55-2.6-3.35-4.5-7.14-5.73-11.35h86.16l.23-1.8c.15-1.65.26-3.33.33-5.05.07-1.72.11-3.48.11-5.28,0-8.99-1.35-17.33-4.04-25.05ZM340.73,87.84c.06-.3.11-.6.18-.9.97-4.19,2.58-7.9,4.83-11.12,2.25-3.22,5.17-5.8,8.76-7.75,3.6-1.94,7.94-2.92,13.03-2.92,7.34,0,12.84,2.1,16.51,6.29,3.67,4.19,6.18,9.66,7.53,16.4h-50.84Z"/></g></svg>